<?xml version="1.0" standalone="no"?>
<!DOCTYPE svg PUBLIC "-//W3C//DTD SVG 20010904//EN"
 "http://www.w3.org/TR/2001/REC-SVG-20010904/DTD/svg10.dtd">
<svg version="1.0" xmlns="http://www.w3.org/2000/svg"
 width="709.000000pt" height="512.000000pt" viewBox="0 0 709.000000 512.000000"
 preserveAspectRatio="xMidYMid meet">
<metadata>
Created by potrace 1.16, written by Peter Selinger 2001-2019
</metadata>
<g transform="translate(0.000000,512.000000) scale(0.100000,-0.100000)"
fill="#000000" stroke="none">
<path d="M1764 3331 c-83 -38 -106 -74 -309 -486 -261 -529 -270 -550 -270
-650 0 -99 28 -159 106 -229 133 -120 328 -95 502 65 l67 61 67 -61 c178 -163
370 -185 509 -59 84 77 121 198 95 304 -25 99 -421 908 -482 986 -63 79 -193
111 -285 69z m183 -90 c12 -6 33 -26 47 -44 52 -69 424 -838 452 -934 14 -47
15 -65 5 -109 -26 -113 -106 -178 -221 -179 -85 0 -159 36 -248 119 l-65 62
48 65 c97 132 155 290 139 383 -32 195 -271 273 -417 137 -111 -102 -94 -274
48 -486 75 -111 75 -109 -17 -184 -77 -63 -143 -93 -213 -98 -51 -4 -68 -1
-115 24 -36 18 -65 43 -85 71 -27 40 -30 51 -30 125 0 81 1 83 79 252 130 276
363 736 388 762 55 59 135 72 205 34z m-12 -531 c62 -30 89 -84 82 -164 -3
-33 -15 -83 -27 -111 -23 -53 -118 -205 -129 -205 -3 0 -25 28 -48 63 -116
173 -142 300 -76 378 51 60 125 74 198 39z"/>
<path d="M3510 3052 c-60 -60 -24 -152 60 -152 113 0 120 159 8 177 -32 5 -41
1 -68 -25z"/>
<path d="M4122 2673 l3 -408 60 0 c52 0 61 3 71 23 10 19 13 20 23 8 24 -29
98 -49 156 -43 187 19 303 227 225 403 -65 148 -255 216 -372 133 l-28 -20 0
155 0 156 -70 0 -70 0 2 -407z m367 -2 c91 -65 80 -224 -19 -273 -51 -26 -129
-23 -171 5 l-34 23 -3 111 -3 111 28 20 c42 29 53 32 114 29 39 -2 65 -10 88
-26z"/>
<path d="M5338 2843 c-2 -131 -2 -316 0 -411 l2 -173 57 3 c48 3 59 7 69 26
10 19 13 20 23 8 7 -8 33 -23 57 -32 125 -48 297 44 336 179 29 104 3 224 -65
295 -85 89 -232 112 -319 51 l-28 -20 0 155 0 156 -65 0 -64 0 -3 -237z m365
-176 c20 -15 41 -43 47 -63 16 -48 8 -129 -17 -162 -46 -63 -159 -83 -224 -39
l-34 23 -3 111 -3 111 28 20 c42 29 53 32 115 29 43 -2 64 -10 91 -30z"/>
<path d="M3079 2820 c-141 -24 -228 -131 -229 -281 0 -65 4 -85 31 -138 45
-89 119 -139 219 -148 64 -6 119 8 145 37 18 20 18 20 29 -2 10 -20 21 -23 74
-26 l62 -3 0 276 0 275 -64 0 c-56 0 -66 -3 -71 -20 -6 -20 -7 -20 -31 -1 -14
11 -39 23 -57 26 -18 4 -39 8 -47 9 -8 2 -36 0 -61 -4z m159 -147 c26 -20 27
-23 30 -136 l3 -115 -38 -23 c-45 -28 -122 -30 -170 -6 -114 59 -107 240 12
293 42 20 129 13 163 -13z"/>
<path d="M3960 2818 c-19 -5 -46 -18 -61 -29 -27 -19 -28 -19 -34 1 -5 17 -15
20 -71 20 l-64 0 0 -275 0 -275 70 0 70 0 0 199 0 199 28 18 c17 12 51 20 95
22 l67 4 0 59 c0 40 -4 59 -12 59 -7 0 -22 2 -33 4 -11 3 -36 0 -55 -6z"/>
<path d="M4989 2820 c-20 -3 -52 -16 -72 -27 -34 -21 -35 -21 -40 -2 -4 16
-14 19 -66 19 l-61 0 0 -275 0 -275 70 0 70 0 0 199 0 199 37 23 c53 33 126
31 162 -5 l26 -26 3 -195 3 -195 65 0 64 0 0 198 c0 108 -5 213 -10 234 -11
37 -73 102 -113 117 -37 14 -100 19 -138 11z"/>
<path d="M3500 2535 l0 -275 70 0 70 0 0 275 0 275 -70 0 -70 0 0 -275z"/>
</g>
</svg>
